<svg width="24" height="24" viewBox="0 0 24 24" fill="none" xmlns="http://www.w3.org/2000/svg">
<path d="M13 10C13 9.44772 13.4477 9 14 9H15C15.5523 9 16 8.55229 16 8C16 7.44772 15.5523 7 15 7H14C12.3431 7 11 8.34315 11 10V12H10C9.44772 12 9 12.4477 9 13C9 13.5523 9.44771 14 10 14H11V20C11 20.5523 11.4477 21 12 21C12.5523 21 13 20.5523 13 20V14H15C15.5523 14 16 13.5523 16 13C16 12.4477 15.5523 12 15 12H13V10Z" fill="#777E91"/>
<path fill-rule="evenodd" clip-rule="evenodd" d="M18 4H6C4.89543 4 4 4.89543 4 6V18C4 19.1046 4.89543 20 6 20H18C19.1046 20 20 19.1046 20 18V6C20 4.89543 19.1046 4 18 4ZM6 2C3.79086 2 2 3.79086 2 6V18C2 20.2091 3.79086 22 6 22H18C20.2091 22 22 20.2091 22 18V6C22 3.79086 20.2091 2 18 2H6Z" fill="#777E91"/>
</svg>
