<svg width="24" height="24" viewBox="0 0 24 24" fill="none" xmlns="http://www.w3.org/2000/svg">
<path fill-rule="evenodd" clip-rule="evenodd" d="M3.11591 13.9998C1.45039 14.0045 0.375252 15.8884 1.40132 17.3157C2.87075 19.3596 5.53539 21 9.98393 21C16.8779 21 22.4117 15.4217 21.637 8.8311L22.772 6.5773C23.559 5.01428 22.1913 3.23622 20.4655 3.57894L18.9661 3.87669C18.5686 3.66843 18.1571 3.51127 17.8056 3.39741C17.1203 3.17552 16.2909 3 15.5232 3C14.1441 3 12.9539 3.35131 12.008 4.05593C11.0728 4.75264 10.5461 5.66825 10.2571 6.50905C10.1238 6.89661 10.0351 7.28534 9.97816 7.65843C9.4431 7.49123 8.89752 7.26626 8.3634 6.99155C7.15161 6.36832 6.17172 5.57822 5.61895 4.88551C4.69155 3.7233 2.72618 3.80947 2.03651 5.32021C1.06448 7.44947 1.33112 9.97346 2.20485 12.0129C2.49771 12.6964 2.87866 13.3721 3.34407 13.9983C3.26439 13.9992 3.18817 13.9996 3.11591 13.9998ZM9.98383 19C6.09292 19 4.08099 17.6007 3.04067 16.1537C2.99393 16.0887 3.04106 16 3.1215 15.9998C4.17984 15.9968 6.35223 15.9471 7.78499 15.1145C7.85908 15.0714 7.84278 14.9629 7.7614 14.9358C4.42156 13.8208 2.52308 9.09859 3.87101 6.1459C3.90192 6.0782 3.99357 6.06927 4.04007 6.12754C5.57985 8.05718 8.94651 9.9472 11.8756 9.99891C11.9392 10 11.9872 9.9427 11.9776 9.88033C11.8595 9.12053 11.4088 5 15.5231 5C16.5055 5 17.9673 5.47583 18.5057 5.9633C18.5306 5.98583 18.5643 5.99606 18.5974 5.9895L20.8604 5.5401C20.9426 5.52378 21.0077 5.60845 20.9703 5.68288L19.5666 8.47019C19.5569 8.48954 19.5538 8.51175 19.5576 8.53306C20.5406 14.02 16.0146 19 9.98383 19Z" fill="#777E91"/>
</svg>
